<?xml version="1.0" standalone="no"?>
<!DOCTYPE svg PUBLIC "-//W3C//DTD SVG 20010904//EN"
 "http://www.w3.org/TR/2001/REC-SVG-20010904/DTD/svg10.dtd">
<svg version="1.0" xmlns="http://www.w3.org/2000/svg"
 width="531.000000pt" height="531.000000pt" viewBox="0 0 531.000000 531.000000"
 preserveAspectRatio="xMidYMid meet">
<metadata>
Created by potrace 1.11, written by Peter Selinger 2001-2013
</metadata>
<g transform="translate(0.000000,531.000000) scale(0.100000,-0.100000)"
fill="#000000" stroke="none">
<path d="M0 2655 l0 -2655 2655 0 2655 0 0 2655 0 2655 -2655 0 -2655 0 0
-2655z m2592 1349 c14 -8 36 -25 47 -40 l21 -26 45 40 c52 46 93 57 139 38 39
-16 82 -66 91 -105 9 -43 -11 -105 -45 -139 -56 -56 -132 -49 -197 18 l-32 33
-41 -37 c-50 -45 -84 -59 -124 -50 -69 15 -106 67 -106 149 0 115 96 172 202
119z m91 -446 c9 -7 21 -31 26 -53 10 -40 20 -80 112 -430 54 -207 79 -302 86
-324 2 -10 74 55 201 181 108 107 205 198 215 201 11 4 25 -1 37 -13 20 -20
20 -36 20 -652 -1 -511 -3 -636 -14 -651 -12 -15 -39 -17 -307 -17 l-293 0
-56 55 -56 55 -54 -55 -54 -55 -291 0 c-213 0 -294 3 -303 12 -9 9 -12 168
-12 653 0 621 1 642 19 659 13 12 25 15 35 9 8 -4 100 -93 204 -196 105 -103
194 -187 200 -187 5 0 21 46 36 103 25 99 67 259 121 462 15 55 34 127 41 160
21 84 49 111 87 83z m-1104 -2351 c9 -30 19 -58 22 -62 3 -3 12 16 19 42 17
62 36 93 59 93 30 0 41 -22 56 -116 19 -114 19 -133 -1 -141 -25 -9 -44 19
-51 75 -3 29 -9 52 -13 52 -3 0 -12 -23 -19 -52 -13 -59 -26 -78 -52 -78 -21
0 -31 18 -52 95 l-13 50 -8 -60 c-9 -66 -19 -85 -46 -85 -28 0 -30 22 -11 136
13 78 22 110 36 120 29 22 56 -3 74 -69z m554 66 c28 -32 92 -215 83 -239 -9
-24 -46 -16 -56 11 -8 22 -16 25 -54 25 -35 0 -46 -4 -51 -19 -11 -34 -65 -39
-65 -7 0 7 15 55 34 105 52 139 73 163 109 124z m517 -20 c0 -8 -15 -35 -32
-61 -26 -36 -34 -61 -38 -107 -5 -56 -7 -60 -30 -60 -24 0 -25 4 -28 59 -3 50
-9 68 -38 108 -38 52 -41 81 -8 86 14 2 28 -8 45 -32 23 -35 39 -45 39 -27 0
5 14 23 30 41 25 27 33 30 45 20 8 -7 15 -19 15 -27z m843 25 c21 -17 79 -172
81 -218 1 -29 -3 -35 -19 -35 -11 0 -24 10 -30 23 -8 18 -18 22 -56 22 -38 0
-48 -4 -52 -20 -7 -27 -35 -36 -54 -18 -13 14 -12 22 10 79 13 35 32 85 41
111 15 41 36 67 57 68 3 0 13 -6 22 -12z m440 -45 c25 39 47 57 62 51 28 -11
25 -37 -10 -84 -28 -38 -35 -57 -35 -94 0 -56 -14 -86 -39 -86 -24 0 -31 19
-31 78 0 38 -7 57 -35 96 -40 56 -43 71 -17 85 14 9 23 3 53 -30 l36 -40 16
24z m-875 27 c38 -23 52 -54 52 -113 0 -56 -18 -88 -60 -109 -40 -21 -130 -24
-148 -6 -16 16 -16 220 0 236 20 20 118 15 156 -8z"/>
<path d="M2470 3940 c-24 -24 -27 -86 -4 -118 25 -36 79 -30 120 14 19 19 34
42 34 49 0 7 -14 27 -31 44 -37 37 -88 42 -119 11z"/>
<path d="M2735 3929 c-19 -17 -35 -36 -35 -43 0 -6 16 -29 35 -49 63 -66 135
-43 135 43 0 79 -71 104 -135 49z"/>
<path d="M2650 3326 c0 -3 -23 -89 -51 -193 -27 -103 -66 -251 -85 -327 l-36
-139 89 -89 88 -88 88 83 c48 45 87 89 87 97 0 14 -93 377 -131 510 -10 36
-21 82 -25 103 -3 20 -10 40 -15 43 -5 3 -9 3 -9 0z"/>
<path d="M2030 2430 l0 -540 75 0 c73 0 75 0 81 28 3 15 14 59 25 97 62 226
159 602 159 615 0 15 -318 340 -333 340 -4 0 -7 -243 -7 -540z"/>
<path d="M3105 2807 l-169 -164 12 -49 c6 -27 29 -116 51 -199 22 -82 53 -204
71 -270 17 -66 38 -146 47 -177 l16 -58 73 0 74 0 1 513 c1 281 2 524 3 540 1
15 -1 27 -4 27 -3 0 -81 -74 -175 -163z"/>
<path d="M2445 2549 c-2 -8 -13 -48 -24 -89 -77 -298 -141 -538 -148 -557 -4
-10 22 -13 118 -13 l124 0 48 48 47 49 0 215 0 214 -72 66 c-40 37 -76 70 -80
74 -4 4 -10 1 -13 -7z"/>
<path d="M2777 2482 l-77 -77 0 -206 0 -205 53 -52 53 -52 117 0 c108 0 118 2
113 18 -3 9 -30 112 -60 227 -31 116 -62 233 -70 260 -8 28 -20 76 -27 108 -7
31 -15 57 -18 57 -4 0 -41 -35 -84 -78z"/>
<path d="M2093 1172 c-11 -41 -10 -42 13 -42 27 0 27 2 10 50 l-13 34 -10 -42z"/>
<path d="M3453 1165 c-11 -34 -10 -35 14 -35 22 0 24 3 18 28 -10 43 -21 45
-32 7z"/>
<path d="M2960 1150 c0 -68 1 -70 25 -70 14 0 34 9 45 20 41 41 14 120 -41
120 l-29 0 0 -70z"/>
</g>
</svg>
